<svg width="1000.786" height="209.086" xmlns="http://www.w3.org/2000/svg">

 <g>
  <title>background</title>
  <rect fill="none" id="canvas_background" height="402" width="582" y="-1" x="-1"/>
 </g>
 <g>
  <title>Layer 1</title>
  <g id="svg_1">
   <polygon id="svg_2" points="933.78,61.306 933.78,163.002 1000.786,112.168  " fill="#0076BC"/>
   <path id="svg_3" d="m166.332,193.412c0,8.211 -6.393,15.674 -15.68,15.674l-15.674,0l0,-114.783c1.825,-30.536 12.928,-54.874 59.314,-56.534c20.063,0.252 34.621,8.229 43.223,18.29c9.219,11.989 13.173,26.885 13.173,45.62c0,19.359 -4.612,35.034 -13.837,47.022c-9.219,11.68 -21.048,17.517 -35.492,17.517c-21.665,0 -32.188,-9.019 -35.05,-10.712c0.001,1.047 0.023,37.906 0.023,37.906m52.545,-90.349c0,-11.983 -2.197,-37.339 -26.736,-37.339c-23.302,0 -25.809,24.739 -25.809,37.339c0,31.903 18.129,35.955 26.73,35.955c22.278,0.001 25.815,-23.627 25.815,-35.955" fill="#ffffff"/>
   <path id="svg_4" d="m18.341,152.741c10.387,8.87 25.986,13.294 46.782,13.294c20.184,0 35.783,-4.27 46.787,-12.836c11.005,-9.174 16.516,-22.015 16.516,-38.524c0,-7.64 -1.499,-14.69 -5.047,-21.105c-3.25,-5.871 -8.768,-11.411 -15.439,-14.752c-4.234,-2.112 -6.811,-3.033 -12.018,-4.636c-5.619,-1.722 -33.604,-9.356 -36.43,-10.1c-15.588,-3.8 -25.488,-8.99 -25.557,-18.215c0.807,-17.837 17.43,-19.262 26.609,-19.262c9.465,0 16.967,1.991 22.467,5.963c9.877,7.686 8.778,17.448 8.778,17.448l31.125,0c-0.612,-15.291 -6.117,-27.686 -16.509,-37.168c-10.089,-8.561 -24.469,-12.848 -43.113,-12.848c-19.88,0 -35.011,4.132 -45.409,12.384c-10.398,8.567 -15.594,20.338 -15.594,35.32c0.046,19.245 9.168,30.593 17.432,35.777c5.018,3.004 16.424,7.611 31.188,10.547l12.4,2.701c21.506,5.242 33.85,11.881 33.466,22.53c-0.234,6.415 -2.443,11.319 -7.342,14.679c-4.476,3.061 -12.087,5.035 -21.552,5.035c-10.713,0 -19.113,-2.129 -25.225,-6.415c-5.814,-3.668 -9.34,-10.089 -10.553,-19.262l-32.103,0c0.916,17.425 7.027,30.581 18.341,39.445" fill="#ffffff"/>
   <path id="svg_5" d="m313.945,64.826c19.715,-0.269 22.776,16.515 23.389,24.773l-46.782,0c0,0 -0.395,-24.333 23.393,-24.773m1.38,73.85c-7.948,-0.401 -23.079,-1.957 -24.464,-28.436l79.48,0.017c0.012,-0.813 0,-9.528 0.023,-9.54c-0.55,-19.955 -5.34,-34.822 -14.685,-45.981c-10.095,-11.01 -24.31,-16.509 -42.656,-16.509c-17.419,0 -31.033,5.66 -40.813,16.967c-9.482,11.005 -14.227,26.301 -14.227,45.866c0,20.492 4.888,36.235 14.685,47.24c9.786,11.318 23.394,16.973 40.813,16.973c14.381,0 26.301,-3.508 35.777,-10.547c9.477,-6.724 15.943,-16.543 19.309,-29.391l-27.617,0.006c-4.062,11.526 -14.449,13.895 -25.625,13.335" fill="#ffffff"/>
   <path id="svg_6" d="m847.622,163.15l-31.801,0l0,-78.364c0,-9.036 -3.715,-21.208 -21.666,-21.208c-17.613,0 -21.201,13.837 -21.201,21.208l0,78.365l-32.275,0l0,-71.91c0,-20.893 6.197,-33.66 16.365,-41.946c10.072,-8.212 22.965,-10.907 36.184,-11.525c7.068,0 13.992,0.773 20.746,2.301c6.764,1.551 12.91,4.612 18.443,9.225c4.617,-3.989 10.061,-6.838 16.365,-8.532c6.295,-1.683 12.814,-2.958 19.59,-2.993c39.359,-0.206 55.154,17.814 56.465,23.594c0,0.086 0.01,101.787 0.01,101.787l-18.215,0c-4.605,0 -15.668,-3.13 -15.668,-15.668l0,-62.698c0.08,-8.881 -3.033,-21.208 -21.672,-21.208c-18.449,0 -21.67,13.837 -21.67,21.208l0,78.364z" fill="#ffffff"/>
   <path id="svg_7" d="m457.994,125.382l30.152,0c0,0 -8.184,39.892 -53.734,39.892c-45.541,0 -56.752,-36.544 -56.752,-60.562c0,-24.012 4.264,-65.037 54.982,-66.474c46.863,-0.704 54.588,39.898 54.588,39.898l-32.109,0c0,0 -3.107,-13.723 -22.221,-13.293c-19.107,0.435 -24.104,18.381 -24.104,35.434c0,17.059 4.246,38.399 25.466,38.399c20.173,0.617 21.953,-10.295 23.732,-13.294" fill="#ffffff"/>
   <path id="svg_8" d="m625.282,40.951l32.104,0l0,77.97c0,0 -1.156,21.088 21.105,21.099c20.99,0.012 21.527,-18.867 21.545,-20.2l0,-63.738c0,0 1.082,-15.13 15,-15.13l16.664,0c0,0 -0.018,71.727 0,72.413c-0.23,3.948 4.199,51.915 -53.209,51.721c-56.877,0 -52.848,-48.527 -53.209,-51.383l0,-72.752z" fill="#ffffff"/>
   <path id="svg_9" d="m527.055,73.581l18.855,0l-0.018,-32.144l-18.799,0l0,-20.646c0,-5.66 -3.152,-15.594 -15.137,-15.594l-16.509,0l0,134.858c0,14.061 5.455,22.473 17.265,22.473c0.133,0 13.85,0.011 14.348,0.011l-0.005,-88.958z" fill="#ffffff"/>
   <path id="svg_10" d="m579.512,162.762l0,-62.84c0,-9.167 2.129,-15.897 6.422,-20.178c4.275,-4.28 10.844,-6.426 19.719,-6.426l10.541,0l0,-32.562c0,0 -16.605,-0.412 -28.664,3.21c-7.742,2.329 -14.598,5.505 -20.4,10.083c-6.135,4.898 -10.941,11.399 -14.455,19.497c-3.514,8.103 -5.27,18.117 -5.27,30.043l0,59.171l32.107,0l0,0.002z" fill="#ffffff"/>
  </g>
 </g>
</svg>