<svg width="1000" height="301.35401" xmlns="http://www.w3.org/2000/svg">
 <metadata id="metadata21">image/svg+xml</metadata>

 <g>
  <title>background</title>
  <rect fill="none" id="canvas_background" height="402" width="582" y="-1" x="-1"/>
 </g>
 <g>
  <title>Layer 1</title>
  <path fill="#ff9900" fill-rule="evenodd" id="path8" d="m620.38044,235.66818c-58.11169,42.83292 -142.34105,65.68583 -214.86092,65.68583c-101.68461,0 -193.22683,-37.60937 -262.48206,-100.16107c-5.44116,-4.91885 -0.5659,-11.62235 5.96353,-7.79179c74.7399,43.48586 167.15276,69.64701 262.61265,69.64701c64.37988,0 135.20216,-13.32001 200.32209,-40.96113c9.83763,-4.17885 18.06468,6.44234 8.44471,13.58115"/>
  <path fill="#ff9900" fill-rule="evenodd" id="path10" d="m644.53924,208.02705c-7.40002,-9.4894 -49.10114,-4.48353 -67.81875,-2.26353c-5.70237,0.69648 -6.57292,-4.26588 -1.43649,-7.83531c33.21291,-23.37526 87.71169,-16.6282 94.06697,-8.79293c6.35527,7.87883 -1.65411,62.5082 -32.86468,88.58226c-4.78823,4.00469 -9.35881,1.87178 -7.22586,-3.43882c7.00822,-17.49881 22.72234,-56.71874 15.27881,-66.25167"/>
  <path fill="#ffffff" fill-rule="evenodd" id="path12" d="m578.02637,32.90841l0,-22.72232c0,-3.43882 2.61176,-5.74587 5.74588,-5.74587l101.72809,0c3.26472,0 5.87648,2.35059 5.87648,5.74587l0,19.45763c-0.0435,3.26469 -2.78588,7.53057 -7.66119,14.27762l-52.71404,75.26227c19.58823,-0.47879 40.26468,2.43764 58.02466,12.4494c4.00469,2.26352 5.09293,5.57175 5.39763,8.83648l0,24.24586c0,3.30822 -3.65647,7.1823 -7.48705,5.17997c-31.29762,-16.41058 -72.86816,-18.19528 -107.474,0.17413c-3.52587,1.9153 -7.22586,-1.91528 -7.22586,-5.22353l0,-23.02702c0,-3.69999 0.0435,-10.01178 3.74349,-15.62706l61.07171,-87.58108l-53.14934,0c-3.2647,0 -5.87646,-2.30703 -5.87646,-5.70235"/>
  <path fill="#ffffff" fill-rule="evenodd" id="path14" d="m206.93856,174.68354l-30.94937,0c-2.95998,-0.21762 -5.31057,-2.43762 -5.52823,-5.26706l0,-158.8386c0,-3.17764 2.6553,-5.70236 5.96352,-5.70236l28.85996,0c3.00356,0.1305 5.39764,2.43763 5.61531,5.31057l0,20.76353l0.56588,0c7.53057,-20.06706 21.6776,-29.42587 40.74347,-29.42587c19.37056,0 31.47173,9.35881 40.1776,29.42587c7.48705,-20.06706 24.50702,-29.42587 42.74584,-29.42587c12.97175,0 27.16232,5.35411 35.82467,17.36821c9.7941,13.36352 7.79174,32.77761 7.79174,49.79761l-0.0435,100.24812c0,3.17763 -2.6553,5.74585 -5.96352,5.74585l-30.90587,0c-3.09056,-0.21762 -5.57173,-2.69879 -5.57173,-5.74585l0,-84.1858c0,-6.70351 0.60937,-23.41879 -0.8706,-29.77409c-2.30705,-10.66467 -9.22821,-13.66822 -18.19529,-13.66822c-7.48705,0 -15.32232,5.00588 -18.49997,13.0153c-3.17765,8.0094 -2.87294,21.41642 -2.87294,30.42701l0,84.1858c0,3.17763 -2.65529,5.74585 -5.96353,5.74585l-30.90582,0c-3.13412,-0.21762 -5.57177,-2.69879 -5.57177,-5.74585l-0.0435,-84.1858c0,-17.71644 2.91643,-43.79054 -19.06586,-43.79054c-22.24353,0 -21.37294,25.42114 -21.37294,43.79054l0,84.1858c0,3.17763 -2.6553,5.74585 -5.96352,5.74585"/>
  <path fill="#ffffff" fill-rule="evenodd" id="path16" d="m778.9579,1.52375c45.92348,0 70.77872,39.4376 70.77872,89.58343c0,48.44817 -27.46705,86.88459 -70.77872,86.88459c-45.09643,0 -69.647,-39.4376 -69.647,-88.58224c0,-49.44936 24.85527,-87.88578 69.647,-87.88578m0.26116,32.42939c-22.80937,0 -24.24586,31.07994 -24.24586,50.45053c0,19.41409 -0.3047,60.85403 23.9847,60.85403c23.98467,0 25.11645,-33.43052 25.11645,-53.80231c0,-13.40701 -0.56589,-29.42582 -4.61414,-42.13641c-3.48235,-11.05643 -10.40349,-15.36584 -20.24115,-15.36584"/>
  <path fill="#ffffff" fill-rule="evenodd" id="path18" d="m909.2848,174.68354l-30.81878,0c-3.0906,-0.21762 -5.57177,-2.69879 -5.57177,-5.74585l-0.0435,-158.88219c0.26118,-2.91647 2.82943,-5.17998 5.96353,-5.17998l28.68587,0c2.69879,0.1305 4.91879,1.95882 5.52823,4.43999l0,24.28937l0.56585,0c8.66237,-21.72114 20.80702,-32.08113 42.17994,-32.08113c13.88587,0 27.42351,5.00588 36.12938,18.71762c8.09645,12.71058 8.09645,34.08351 8.09645,49.44934l0,99.98698c-0.34822,2.78585 -2.91647,5.00585 -5.96349,5.00585l-31.03645,0c-2.82943,-0.21762 -5.18002,-2.30703 -5.48469,-5.00585l0,-86.2752c0,-17.36822 2.00234,-42.78939 -19.37059,-42.78939c-7.53056,0 -14.45174,5.04944 -17.89056,12.71058c-4.35292,9.70707 -4.91881,19.37059 -4.91881,30.07881l0,85.5352c-0.0435,3.17763 -2.74234,5.74585 -6.05056,5.74585"/>
  <path fill="#ffffff" fill-rule="evenodd" id="path28" d="m496.93116,98.81188c0,12.05762 0.3047,22.1129 -5.78941,32.82113c-4.91881,8.7059 -12.75409,14.06 -21.41642,14.06c-11.88352,0 -18.84822,-9.05413 -18.84822,-22.41764c0,-26.37878 23.63643,-31.16701 46.05405,-31.16701l0,6.70352m31.21056,75.43637c-2.04586,1.82823 -5.00589,1.95881 -7.31293,0.74001c-10.27295,-8.53175 -12.1447,-12.49291 -17.75998,-20.6329c-16.97646,17.32467 -29.03411,22.50465 -51.01643,22.50465c-26.07409,0 -46.31522,-16.06234 -46.31522,-48.2305c0,-25.11646 13.58118,-42.2235 32.99527,-50.58113c16.80232,-7.40002 40.26461,-8.70587 58.19873,-10.75175l0,-4.0047c0,-7.35649 0.56589,-16.06236 -3.78705,-22.41762c-3.74352,-5.70236 -10.96942,-8.05295 -17.36822,-8.05295c-11.79647,0 -22.28702,6.05058 -24.85527,18.58703c-0.52235,2.7859 -2.56821,5.52825 -5.39765,5.65884l-29.99171,-3.2212c-2.52472,-0.56585 -5.35411,-2.61176 -4.61411,-6.48584c6.87764,-36.39054 39.78585,-47.35997 69.21167,-47.35997c15.06117,0 34.73643,4.00471 46.61995,15.40939c15.06114,14.05998 13.62469,32.82114 13.62469,53.23642l0,48.23053c0,14.4953 6.00705,20.85055 11.66586,28.68587c1.95885,2.78585 2.39414,6.13761 -0.13071,8.22702c-6.31175,5.26708 -17.54234,15.06118 -23.7235,20.54587l-0.0435,-0.0872"/>
  <path fill="#ffffff" fill-rule="evenodd" id="path30" d="m91.19401,98.81188c0,12.05762 0.30468,22.1129 -5.7894,32.82113c-4.91885,8.7059 -12.7106,14.06 -21.41647,14.06c-11.88352,0 -18.80467,-9.05413 -18.80467,-22.41764c0,-26.37878 23.63643,-31.16701 46.01054,-31.16701l0,6.70352m31.21054,75.43637c-2.04587,1.82823 -5.0059,1.95881 -7.31295,0.74001c-10.2729,-8.53175 -12.10116,-12.49291 -17.75997,-20.6329c-16.97646,17.32467 -28.99053,22.50465 -51.01641,22.50465c-26.03057,0 -46.31522,-16.06234 -46.31522,-48.2305c0,-25.11646 13.62468,-42.2235 32.99524,-50.58113c16.80233,-7.40002 40.26466,-8.70587 58.19877,-10.75175l0,-4.0047c0,-7.35649 0.56589,-16.06236 -3.74352,-22.41762c-3.78708,-5.70236 -11.01293,-8.05295 -17.36824,-8.05295c-11.79643,0 -22.33056,6.05058 -24.89878,18.58703c-0.52237,2.7859 -2.56825,5.52825 -5.35411,5.65884l-30.03526,-3.2212c-2.5247,-0.56585 -5.31059,-2.61176 -4.61412,-6.48584c6.92118,-36.39054 39.78583,-47.35997 69.2117,-47.35997c15.06113,0 34.7364,4.00471 46.61992,15.40939c15.06117,14.05998 13.62468,32.82114 13.62468,53.23642l0,48.23053c0,14.4953 6.00708,20.85055 11.6659,28.68587c2.00234,2.78585 2.43763,6.13761 -0.0871,8.22702c-6.31175,5.26708 -17.54231,15.06118 -23.72351,20.54587l-0.087,-0.0872"/>
 </g>
</svg>